<?xml version="1.0" encoding="utf-8"?><svg viewBox="0 0 576 512" xmlns="http://www.w3.org/2000/svg" xmlns:xlink="http://www.w3.org/1999/xlink"><style>:root>svg{display:none}:root>svg:target{display:block}</style><svg viewBox="0 0 31 44" id="address" xmlns="http://www.w3.org/2000/svg"><path class="aacls-1" d="M14.6 43.809l-6.584-2.917-5.674 2.51a1.651 1.651 0 01-1.864-.355 1.634 1.634 0 01-.313-1.862l4.994-10.516a1.103 1.103 0 111.972.987L2.788 40.8l4.32-1.914a2.227 2.227 0 011.806 0l6.583 2.916h.011l6.585-2.917a2.223 2.223 0 011.8 0l4.32 1.914-4.342-9.145a1.093 1.093 0 01.174-1.275 1.107 1.107 0 011.8.288l4.994 10.518a1.656 1.656 0 01-2.176 2.216L23 40.892l-6.594 2.917a2.23 2.23 0 01-1.806 0zm-1.947-7.6L3.1 20.283c-.011-.02-.023-.041-.033-.062a13.944 13.944 0 1126.39-6.327 13.691 13.691 0 01-1.528 6.327l-.034.062-9.548 15.927a3.326 3.326 0 01-5.697 0zm2.683-34.012A11.783 11.783 0 003.75 13.822a11.521 11.521 0 001.269 5.366l9.529 15.9a1.114 1.114 0 001.91 0l9.528-15.9a11.665 11.665 0 00-2.231-13.625 11.7 11.7 0 00-8.247-3.368zm-4.884 11.7a5.051 5.051 0 115.051 5.027 5.044 5.044 0 01-5.054-5.03zm2.206 0a2.845 2.845 0 102.845-2.83 2.842 2.842 0 00-2.848 2.827z"/></svg><svg viewBox="0 0 19.738 19.738" id="admin" xmlns="http://www.w3.org/2000/svg"><g fill="#fff"><path d="M18.18 19.738h-2c0-3.374-2.83-6.118-6.311-6.118s-6.31 2.745-6.31 6.118h-2c0-4.478 3.729-8.118 8.311-8.118 4.581 0 8.31 3.64 8.31 8.118zM9.87 10.97a5.492 5.492 0 01-5.484-5.485A5.49 5.49 0 019.87 0c3.025 0 5.486 2.46 5.486 5.485S12.895 10.97 9.87 10.97zm0-8.97C7.948 2 6.385 3.563 6.385 5.485S7.948 8.97 9.87 8.97c1.923 0 3.486-1.563 3.486-3.485S11.791 2 9.87 2z"/></g></svg><svg viewBox="0 0 19.738 19.738" id="admin-black" xmlns="http://www.w3.org/2000/svg"><g fill="#222933"><path d="M18.18 19.738h-2c0-3.374-2.83-6.118-6.311-6.118s-6.31 2.745-6.31 6.118h-2c0-4.478 3.729-8.118 8.311-8.118 4.581 0 8.31 3.64 8.31 8.118zM9.87 10.97a5.492 5.492 0 01-5.484-5.485A5.49 5.49 0 019.87 0c3.025 0 5.486 2.46 5.486 5.485S12.895 10.97 9.87 10.97zm0-8.97C7.948 2 6.385 3.563 6.385 5.485S7.948 8.97 9.87 8.97c1.923 0 3.486-1.563 3.486-3.485S11.791 2 9.87 2z"/></g></svg><svg viewBox="0 0 6.1 10.97" id="articles-arrow" xmlns="http://www.w3.org/2000/svg"><path class="adcls-1" d="M.55 10.97a.53.53 0 01-.41-.19.6.6 0 01-.15-.4.631.631 0 01.17-.43l4.55-4.47L.16 1A.607.607 0 01-.01.58.629.629 0 01.14.17a.559.559 0 01.8-.02l4.98 4.9.01.01a.657.657 0 01.12.17.7.7 0 01.05.25.742.742 0 01-.05.25.61.61 0 01-.12.16c0 .01-.01.01-.01.02l-4.98 4.9a.589.589 0 01-.39.16z"/></svg><svg viewBox="0 0 41.78 40.406" id="awards" xmlns="http://www.w3.org/2000/svg"><defs><style>.aecls-1{fill:#a3bbc8;fill-rule:evenodd}</style></defs><path class="aecls-1" d="M12.56 31.95a8.516 8.516 0 01.83-3.671L.17 7.833a.919.919 0 01.11-1.139L6.6.276A.9.9 0 017.23.01h27.35a.882.882 0 01.63.266l6.32 6.418a.906.906 0 01.11 1.139L28.42 28.28a8.508 8.508 0 01.83 3.67 8.346 8.346 0 11-16.69 0zm1.79 0a6.556 6.556 0 106.56-6.661 6.617 6.617 0 00-6.56 6.661zm8.55-8.23a8.324 8.324 0 014.47 2.884L39.24 8.242H32.9zm-8.46 2.883a8.354 8.354 0 014.48-2.883L8.91 8.242H2.57zm6.45-3.127h.03l9.85-15.234H11.04zM3.07 6.429h35.67l-4.53-4.606H7.6zm17.25 28.919v-4.9h-.53a.907.907 0 010-1.814h1.42a.9.9 0 01.89.908v5.808a.89.89 0 11-1.78-.007z"/></svg><svg viewBox="0 0 17.03 17" id="blog-search" xmlns="http://www.w3.org/2000/svg"><path class="afcls-1" d="M16.44 17.014a.6.6 0 01-.42-.174l-5.3-5.3a6.515 6.515 0 11.84-.839l5.3 5.3a.6.6 0 010 .839.6.6 0 01-.42.174zM6.54 1.181a5.344 5.344 0 105.35 5.344 5.351 5.351 0 00-5.35-5.344z"/></svg><svg viewBox="0 0 48.03 63.94" id="brands" xmlns="http://www.w3.org/2000/svg"><defs><style>.agcls-1{fill:#243f4d;fill-rule:evenodd}</style></defs><path class="agcls-1" d="M32.09 7.95a17.9 17.9 0 00-20.89 3.38 18.376 18.376 0 00-1.5 24.05 1.029 1.029 0 00.79.39.981.981 0 00.62-.22 1.011 1.011 0 00.17-1.41 16.324 16.324 0 011.33-21.38 15.907 15.907 0 0118.58-3.01 1 1 0 001.34-.44 1.018 1.018 0 00-.44-1.36zM40.06 16a.99.99 0 00-1.34-.44 1.007 1.007 0 00-.44 1.35 16.279 16.279 0 01-2.98 18.75A15.948 15.948 0 0114.12 37a.992.992 0 00-1.4.18 1.011 1.011 0 00.17 1.41 17.914 17.914 0 0023.82-1.5A18.316 18.316 0 0040.06 16zm-2.58-3.84c-.24-.28-.5-.56-.77-.83s-.54-.53-.82-.78a1.003 1.003 0 00-1.32 1.51c.25.23.49.46.73.7s.47.49.69.74a.991.991 0 00.74.34 1.05 1.05 0 00.67-.25 1.021 1.021 0 00.08-1.43zm10.04 13.86a3.439 3.439 0 000-3.58l-1.31-2.17a1.412 1.412 0 01-.19-.96l.39-2.51a3.427 3.427 0 00-1.36-3.31l-2.03-1.5a1.384 1.384 0 01-.54-.81l-.6-2.47a3.391 3.391 0 00-2.5-2.53l-2.45-.6a1.448 1.448 0 01-.81-.54l-1.48-2.06a3.365 3.365 0 00-3.28-1.37L28.88 2a1.374 1.374 0 01-.95-.19L25.77.49a3.326 3.326 0 00-3.54 0l-2.15 1.32a1.384 1.384 0 01-.95.19l-2.49-.39a3.373 3.373 0 00-3.28 1.37l-1.48 2.05a1.393 1.393 0 01-.8.55l-2.45.6a3.388 3.388 0 00-2.51 2.53l-.59 2.47a1.415 1.415 0 01-.54.81l-2.04 1.5a3.427 3.427 0 00-1.36 3.31l.39 2.51a1.406 1.406 0 01-.18.96L.48 22.44a3.484 3.484 0 000 3.58l1.32 2.17a1.406 1.406 0 01.18.96l-.39 2.51a3.427 3.427 0 001.36 3.31l2.04 1.5a1.384 1.384 0 01.54.81l.59 2.47a3.391 3.391 0 002.5 2.53l1.03.25-6.93 15.59a1.043 1.043 0 00.11 1.01.981.981 0 00.92.4l5.57-.67 3.21 4.65a1.01 1.01 0 00.82.43h.1a.994.994 0 00.81-.6l7.08-15.92.89.55a3.326 3.326 0 003.54 0l.93-.57 7.08 15.94a1.009 1.009 0 00.82.6h.09a1 1 0 00.82-.43l3.21-4.65 5.57.68a1.015 1.015 0 001.03-1.42l-6.93-15.6.99-.24a3.391 3.391 0 002.5-2.53l.6-2.47a1.384 1.384 0 01.54-.81l2.03-1.5a3.427 3.427 0 001.36-3.31l-.39-2.51a1.412 1.412 0 01.19-.96zM13.16 60.9l-2.54-3.69a.99.99 0 00-.94-.42l-4.41.53 6.31-14.2a1.421 1.421 0 01.3.3l1.48 2.06a3.958 3.958 0 00.47.53l-3.32 7.48a1.005 1.005 0 00.91 1.42 1 1 0 00.91-.6l3.31-7.45a3.725 3.725 0 001-.01l2.49-.39a1.086 1.086 0 01.44 0zm29.62-3.58l-4.42-.53a.983.983 0 00-.93.42l-2.55 3.69-6.41-14.45a1.136 1.136 0 01.41.01l2.48.39a3.3 3.3 0 001.04 0l3.31 7.46a1.012 1.012 0 00.91.6.978.978 0 00.41-.09 1.011 1.011 0 00.5-1.33l-3.33-7.51a3.5 3.5 0 00.44-.5l1.48-2.06a1.518 1.518 0 01.34-.33zm3.04-32.35l-1.32 2.17a3.435 3.435 0 00-.45 2.32l.39 2.51a1.419 1.419 0 01-.56 1.37l-2.04 1.5a3.4 3.4 0 00-1.3 1.96l-.6 2.48a1.383 1.383 0 01-1.03 1.04l-2.45.6a3.357 3.357 0 00-1.95 1.32l-1.48 2.05a1.39 1.39 0 01-1.36.57l-2.48-.4a3.42 3.42 0 00-2.3.46l-2.16 1.33a1.374 1.374 0 01-1.46 0l-2.15-1.33a3.4 3.4 0 00-1.78-.5 4.55 4.55 0 00-.52.04l-2.49.4a1.382 1.382 0 01-1.35-.57l-1.49-2.05a3.357 3.357 0 00-1.95-1.32l-2.45-.6a1.383 1.383 0 01-1.03-1.04l-.59-2.48a3.412 3.412 0 00-1.31-1.96l-2.03-1.5a1.426 1.426 0 01-.57-1.37l.4-2.51a3.5 3.5 0 00-.46-2.32l-1.31-2.17a1.409 1.409 0 010-1.48l1.31-2.17A3.5 3.5 0 003.96 19l-.39-2.52a1.391 1.391 0 01.56-1.36l2.03-1.5a3.467 3.467 0 001.31-1.97l.59-2.47a1.383 1.383 0 011.03-1.04l2.45-.6a3.412 3.412 0 001.96-1.32l1.48-2.05a1.382 1.382 0 011.35-.57l2.49.39a3.331 3.331 0 002.3-.46l2.15-1.32a1.374 1.374 0 011.46 0l2.16 1.32a3.31 3.31 0 002.3.46l2.48-.39a1.39 1.39 0 011.36.57l1.48 2.05a3.389 3.389 0 001.95 1.32l2.45.6a1.383 1.383 0 011.03 1.04l.6 2.47a3.42 3.42 0 001.3 1.97l2.04 1.5a1.411 1.411 0 01.56 1.36L44.05 19a3.435 3.435 0 00.45 2.32l1.32 2.17a1.453 1.453 0 010 1.48zm-10.13-3.88a1.788 1.788 0 00-1.51-1.24l-6.01-.72-2.53-5.55a1.8 1.8 0 00-3.28 0l-2.53 5.55-6.01.72a1.775 1.775 0 00-1.5 1.24 1.818 1.818 0 00.49 1.9l4.44 4.15-1.18 5.99a1.819 1.819 0 001.77 2.18 1.767 1.767 0 00.88-.24L24 32.09l5.28 2.98a1.757 1.757 0 001.94-.11 1.807 1.807 0 00.71-1.83l-1.18-5.99 4.44-4.15a1.8 1.8 0 00.5-1.9zm-6.7 4.95a1.006 1.006 0 00-.3.94l1.2 6.13-5.4-3.05a.947.947 0 00-.49-.13.973.973 0 00-.49.13l-5.4 3.05 1.21-6.13a1.031 1.031 0 00-.3-.94l-4.55-4.24 6.15-.74a1.01 1.01 0 00.79-.58L24 14.81l2.59 5.67a1.01 1.01 0 00.79.58l6.15.74z"/></svg><svg viewBox="0 0 18.94 16.969" id="cart" xmlns="http://www.w3.org/2000/svg"><path d="M5.53 16.978a2.074 2.074 0 110-4.147 2.056 2.056 0 011.46.6 2.03 2.03 0 01.61 1.466 2.071 2.071 0 01-2.07 2.081zm0-2.963a.889.889 0 10.34 1.71.9.9 0 00.55-.824.92.92 0 00-.26-.629.9.9 0 00-.63-.257zm8.39 2.963a2.045 2.045 0 01-1.46-.607 2.068 2.068 0 011.46-3.54 1.953 1.953 0 011.47.6 2.085 2.085 0 01-.67 3.383 2.093 2.093 0 01-.8.164zm0-2.963a.978.978 0 00-.82.548.887.887 0 001.16 1.161.891.891 0 00.29-1.452.9.9 0 00-.63-.257zm-11.27.164a.562.562 0 01-.25-.056.59.59 0 01-.29-.787 3.686 3.686 0 013.05-2.151L4.11 5.794a.591.591 0 111.16-.228l1.09 5.578h9.43l1.8-6.771H4.29A4.346 4.346 0 01.01.68.587.587 0 01.5.007a.6.6 0 01.68.5 3.159 3.159 0 003.11 2.682h14.07a.582.582 0 01.47.232.594.594 0 01.11.513l-2.13 7.956a.59.59 0 01-.57.44H5.88a.03.03 0 00-.02 0 2.66 2.66 0 00-2.68 1.51.586.586 0 01-.53.338z"/></svg><svg viewBox="0 0 33.76 33.76" id="circle" xmlns="http://www.w3.org/2000/svg"><defs><style>.aicls-1{fill:#a3bbc8}</style></defs><circle class="aicls-1" cx="16.88" cy="16.88" r="16.88"/></svg><svg viewBox="0 0 18 14.81" id="comment" xmlns="http://www.w3.org/2000/svg"><defs><style>.ajcls-1{fill:#436372;fill-rule:evenodd}</style></defs><path class="ajcls-1" d="M3 14.81a.415.415 0 01-.16-.03.42.42 0 01-.27-.38v-2.07H1.29A1.262 1.262 0 010 11.1V1.23A1.262 1.262 0 011.29 0h15.42A1.262 1.262 0 0118 1.23v9.87a1.262 1.262 0 01-1.29 1.23H5.77L3.3 14.69a.423.423 0 01-.3.12zM1.29.82a.423.423 0 00-.43.41v9.87a.423.423 0 00.43.41H3a.417.417 0 01.43.41v1.49l1.86-1.78a.407.407 0 01.3-.12h11.12a.423.423 0 00.43-.41V1.23a.423.423 0 00-.43-.41H1.29zm4.77 5.34a.646.646 0 11-.65-.61.63.63 0 01.65.61zm3.58 0a.64.64 0 01-1.28 0A.619.619 0 019 5.55a.626.626 0 01.64.61zm3.35 0a.646.646 0 11-.65-.61.63.63 0 01.65.61z"/></svg><svg aria-hidden="true" data-prefix="fas" data-icon="arrow-right" class="aksvg-inline--fa akfa-arrow-right akfa-w-14" viewBox="0 0 448 512" id="comments-arrow" xmlns="http://www.w3.org/2000/svg"><path d="M190.5 66.9l22.2-22.2c9.4-9.4 24.6-9.4 33.9 0L441 239c9.4 9.4 9.4 24.6 0 33.9L246.6 467.3c-9.4 9.4-24.6 9.4-33.9 0l-22.2-22.2c-9.5-9.5-9.3-25 .4-34.3L311.4 296H24c-13.3 0-24-10.7-24-24v-32c0-13.3 10.7-24 24-24h287.4L190.9 101.2c-9.8-9.3-10-24.8-.4-34.3z" fill="#526278"/></svg><svg viewBox="0 0 18 12.38" id="contact-email" xmlns="http://www.w3.org/2000/svg"><defs><style>.alcls-1{fill:#62666e;fill-rule:evenodd}</style></defs><path class="alcls-1" d="M16.71 12.37H1.29A1.262 1.262 0 010 11.14v-9.9A1.27 1.27 0 011.29 0h15.42A1.27 1.27 0 0118 1.24v9.9a1.262 1.262 0 01-1.29 1.23zM1.29.83a.417.417 0 00-.43.41v9.9a.423.423 0 00.43.41h15.42a.423.423 0 00.43-.41v-9.9a.417.417 0 00-.43-.41H1.29zM9 6.42a1.319 1.319 0 01-.74-.23L.48.95a.4.4 0 01-.1-.57.428.428 0 01.59-.1l7.78 5.24a.454.454 0 00.5 0L17.03.28a.428.428 0 01.59.1.4.4 0 01-.1.57L9.74 6.19a1.319 1.319 0 01-.74.23zm8.32 5.71a.423.423 0 01-.3-.12L10.4 5.65a.423.423 0 010-.59.448.448 0 01.61 0l6.61 6.37a.394.394 0 010 .58.423.423 0 01-.3.12zm-16.64 0a.423.423 0 01-.3-.12.394.394 0 010-.58l6.61-6.37a.448.448 0 01.61 0 .423.423 0 010 .59L.98 12.01a.423.423 0 01-.3.12z"/></svg><svg viewBox="0 0 18 14.81" id="contact-message" xmlns="http://www.w3.org/2000/svg"><defs><style>.amcls-1{fill:#62666e;fill-rule:evenodd}</style></defs><path class="amcls-1" d="M3 14.81a.415.415 0 01-.16-.03.42.42 0 01-.27-.38v-2.07H1.29A1.262 1.262 0 010 11.1V1.23A1.262 1.262 0 011.29 0h15.42A1.262 1.262 0 0118 1.23v9.87a1.262 1.262 0 01-1.29 1.23H5.77L3.3 14.69a.423.423 0 01-.3.12zM1.29.82a.423.423 0 00-.43.41v9.87a.423.423 0 00.43.41H3a.417.417 0 01.43.41v1.49l1.86-1.78a.407.407 0 01.3-.12h11.12a.423.423 0 00.43-.41V1.23a.423.423 0 00-.43-.41H1.29zm4.77 5.34a.646.646 0 11-.65-.61.63.63 0 01.65.61zm3.58 0a.64.64 0 01-1.28 0A.619.619 0 019 5.55a.626.626 0 01.64.61zm3.35 0a.646.646 0 11-.65-.61.63.63 0 01.65.61z"/></svg><svg viewBox="0 0 13.687 13.16" id="contact-name" xmlns="http://www.w3.org/2000/svg"><defs><style>.ancls-1{fill:#62666e;fill-rule:evenodd}</style></defs><path class="ancls-1" d="M13.257 13.17H.424a.426.426 0 01-.428-.42 6.85 6.85 0 0113.689 0 .426.426 0 01-.428.42zm-12.39-.83h11.947a6.011 6.011 0 00-11.947 0zM6.841 7a3.5 3.5 0 113.636-3.5A3.574 3.574 0 016.841 7zm0-6.17a2.672 2.672 0 102.78 2.67A2.732 2.732 0 006.841.83z"/></svg><svg viewBox="0 0 67 64" id="daily" xmlns="http://www.w3.org/2000/svg"><defs><style>.aocls-1{fill:#243f4d;fill-rule:evenodd}</style></defs><path class="aocls-1" d="M57.06 53.46a4.359 4.359 0 00-2.21-3.23l-11.59-6.45a4.614 4.614 0 00-5.46.74l-4.07 4.03a2.4 2.4 0 01-3.1.24A75.725 75.725 0 0115.38 33.7a2.362 2.362 0 01.24-3.07l4.07-4.03a4.484 4.484 0 00.75-5.4L13.92 9.74a4.37 4.37 0 00-3.26-2.19A4.685 4.685 0 006.7 8.89l-4.29 4.24c-3.04 3.01-3.2 8.38-.45 15.13 2.62 6.46 7.61 13.53 14.05 19.9S29.6 59.48 36.13 62.07A23.842 23.842 0 0044.78 64a9.073 9.073 0 006.63-2.37l4.29-4.25a4.6 4.6 0 001.36-3.92zm-2.89 2.4l-.75.75-9.88-5.34a1.09 1.09 0 00-1.47.43 1.066 1.066 0 00.43 1.46l9.32 5.03-1.94 1.92c-2.35 2.32-7.06 2.31-12.94-.03-6.27-2.49-13.15-7.26-19.39-13.44S6.49 33.66 3.97 27.46c-2.36-5.82-2.37-10.49-.03-12.81l1.94-1.92 1.04 1.89a1.109 1.109 0 00.96.56 1.095 1.095 0 00.95-1.59l-1.35-2.44.75-.74a2.573 2.573 0 011.8-.76 1.841 1.841 0 01.33.03 2.221 2.221 0 011.67 1.11l6.52 11.47a2.363 2.363 0 01-.39 2.83L16.22 27l-5.08-9.22a1.1 1.1 0 00-1.47-.43 1.078 1.078 0 00-.44 1.46l5.39 9.77-.53.53a4.5 4.5 0 00-.45 5.87 75.017 75.017 0 007.28 8.32 76.9 76.9 0 008.41 7.21 4.624 4.624 0 005.94-.44l.53-.53 2.46 1.33a1.112 1.112 0 00.52.13 1.089 1.089 0 00.96-.56 1.064 1.064 0 00-.44-1.45l-1.9-1.03 1.93-1.92a2.438 2.438 0 012.86-.39l11.59 6.45a2.244 2.244 0 011.13 1.65 2.517 2.517 0 01-.74 2.11zm-2.14-28.37H50.8v-9.24a1.085 1.085 0 00-2.17 0v9.24h-5.67l2.02-9a1.069 1.069 0 00-.82-1.28 1.083 1.083 0 00-1.3.81l-2.31 10.31a1.073 1.073 0 00.21.9 1.091 1.091 0 00.85.41h7.01v3.5a1.09 1.09 0 002.18 0v-3.5h1.22a1.075 1.075 0 10.01-2.15zm-13.89 4.58h-7.99c.47-1.23 1.81-2.01 3.73-3.05 2.38-1.29 5.34-2.88 5.34-6.51a5.729 5.729 0 00-11.43 0 1.085 1.085 0 002.17 0 3.566 3.566 0 017.09 0c0 2.19-1.59 3.21-4.21 4.62-2.36 1.28-5.05 2.73-5.05 6.01a1.084 1.084 0 001.09 1.08h9.26a1.075 1.075 0 100-2.15zm22.93 12.62l-2.11.42A26.086 26.086 0 0067 26.27a26.608 26.608 0 00-48.27-15.11 1.065 1.065 0 00.26 1.5 1.1 1.1 0 001.51-.26 24.436 24.436 0 0144.33 13.87 23.961 23.961 0 01-7.59 17.5l.48-2.4a1.069 1.069 0 00-.85-1.26 1.085 1.085 0 00-1.28.84l-1.16 5.73a1.069 1.069 0 00.3.97 1.107 1.107 0 00.77.31.749.749 0 00.21-.02l5.79-1.14a1.077 1.077 0 10-.43-2.11zM40.45 4.58a1.073 1.073 0 00-1.08 1.07v2.3a1.085 1.085 0 002.17 0v-2.3a1.082 1.082 0 00-1.09-1.07zM61.28 25.2h-2.31a1.075 1.075 0 100 2.15h2.31a1.075 1.075 0 100-2.15zm-36.33-9.02l-2-1.15a1.091 1.091 0 00-1.48.4 1.064 1.064 0 00.39 1.46l2.01 1.15a1.063 1.063 0 00.54.14 1.081 1.081 0 00.94-.53 1.07 1.07 0 00-.4-1.47zm34.09 19.47l-2.01-1.14a1.075 1.075 0 10-1.08 1.86l2 1.14a1.063 1.063 0 00.54.14 1.081 1.081 0 00.94-.53 1.067 1.067 0 00-.39-1.47zM51.41 7.49a1.088 1.088 0 00-1.48.39l-1.16 1.98a1.074 1.074 0 00.94 1.61 1.093 1.093 0 00.94-.53l1.16-1.99a1.059 1.059 0 00-.4-1.46zM31.73 41.21a1.091 1.091 0 00-1.48.4l-1.16 1.98a1.073 1.073 0 00.4 1.47 1.174 1.174 0 00.54.14 1.07 1.07 0 00.94-.54l1.16-1.98a1.073 1.073 0 00-.4-1.47zm27.7-25.78a1.091 1.091 0 00-1.48-.4l-2 1.15a1.07 1.07 0 00-.4 1.47 1.093 1.093 0 00.94.53 1.063 1.063 0 00.54-.14l2.01-1.15a1.056 1.056 0 00.39-1.46zM25.35 34.9a1.079 1.079 0 00-1.48-.39l-2.01 1.14a1.072 1.072 0 00.55 2 1.063 1.063 0 00.54-.14l2-1.14a1.073 1.073 0 00.4-1.47zm6.78-25.04l-1.16-1.98a1.088 1.088 0 00-1.48-.39 1.059 1.059 0 00-.4 1.46l1.16 1.99a1.1 1.1 0 00.94.54 1.048 1.048 0 00.54-.15 1.07 1.07 0 00.4-1.47zm19.68 33.73l-1.16-1.98a1.091 1.091 0 00-1.48-.4 1.073 1.073 0 00-.4 1.47l1.16 1.98a1.07 1.07 0 00.94.54 1.174 1.174 0 00.54-.14 1.073 1.073 0 00.4-1.47z"/></svg><svg viewBox="0 0 53.75 36.44" id="delivery" xmlns="http://www.w3.org/2000/svg"><path fill="#b8c9d1" d="M9.004 4.77H2.878a.79.79 0 000 1.58h6.126a.79.79 0 000-1.58zm.524 11.01h-5.6a.785.785 0 100 1.57h5.6a.785.785 0 100-1.57zm-2.094-4.72H.788a.79.79 0 000 1.58h6.65a.79.79 0 00-.004-1.58zm0 11.01h-.646a.785.785 0 100 1.57h.644a.785.785 0 10.002-1.57zm-3.263 0H.788a.785.785 0 100 1.57h3.387a.785.785 0 10-.004-1.57zm36.86-19.86h-6.657V.79a.784.784 0 00-.786-.78H21.413a.785.785 0 100 1.57h11.39V18.8a.786.786 0 101.571 0V3.78h6.657a6.519 6.519 0 016.509 6.52v13.29h-2a4.974 4.974 0 00-9.824 0h-1.345v-1.12a.786.786 0 10-1.571 0v1.12h-8.336a4.974 4.974 0 00-9.823 0h-1.634V1.58h5.261a.785.785 0 100-1.57h-6.046a.783.783 0 00-.785.78v23.59a.791.791 0 00.785.79h2.419a4.974 4.974 0 009.823 0h11.252a4.974 4.974 0 009.824 0h2.782a.791.791 0 00.785-.79V10.3a8.094 8.094 0 00-8.076-8.09zM19.556 27.79a3.41 3.41 0 113.4-3.41 3.411 3.411 0 01-3.4 3.41zm21.075 0a3.411 3.411 0 01-3.4-3.41 3.4 3.4 0 113.4 3.41zm.4-22.44h-4.3a.791.791 0 00-.785.79v7.39a.791.791 0 00.785.79h8.457a.792.792 0 00.786-.79V10.3a4.949 4.949 0 00-4.943-4.95zm3.367 7.39h-6.882V6.93h3.515a3.371 3.371 0 013.367 3.37v2.44zm-24.842 9.61a2.03 2.03 0 102.024 2.03 2.029 2.029 0 00-2.024-2.03zm0 2.49a.46.46 0 01-.455-.46.455.455 0 01.909 0 .46.46 0 01-.454.46zm21.075-2.49a2.03 2.03 0 102.025 2.03 2.03 2.03 0 00-2.025-2.03zm0 2.49a.46.46 0 01-.454-.46.454.454 0 01.908 0 .46.46 0 01-.454.46zm4.552-8.37a.783.783 0 00-.785.78v1.99a.786.786 0 101.571 0v-1.99a.784.784 0 00-.781-.78zm-1.245.38a9.8 9.8 0 11-9.813 9.79 9.8 9.8 0 019.813-9.79z"/></svg><svg viewBox="0 0 18 12.38" id="email" xmlns="http://www.w3.org/2000/svg"><defs><style>.aqcls-1{fill:#436372;fill-rule:evenodd}</style></defs><path class="aqcls-1" d="M16.71 12.37H1.29A1.262 1.262 0 010 11.14v-9.9A1.27 1.27 0 011.29 0h15.42A1.27 1.27 0 0118 1.24v9.9a1.262 1.262 0 01-1.29 1.23zM1.29.83a.417.417 0 00-.43.41v9.9a.423.423 0 00.43.41h15.42a.423.423 0 00.43-.41v-9.9a.417.417 0 00-.43-.41H1.29zM9 6.42a1.319 1.319 0 01-.74-.23L.48.95a.4.4 0 01-.1-.57.428.428 0 01.59-.1l7.78 5.24a.454.454 0 00.5 0L17.03.28a.428.428 0 01.59.1.4.4 0 01-.1.57L9.74 6.19a1.319 1.319 0 01-.74.23zm8.32 5.71a.423.423 0 01-.3-.12L10.4 5.65a.423.423 0 010-.59.448.448 0 01.61 0l6.61 6.37a.394.394 0 010 .58.423.423 0 01-.3.12zm-16.64 0a.423.423 0 01-.3-.12.394.394 0 010-.58l6.61-6.37a.448.448 0 01.61 0 .423.423 0 010 .59L.98 12.01a.423.423 0 01-.3.12z"/></svg><svg viewBox="0 0 8.13 15.44" id="facebook" xmlns="http://www.w3.org/2000/svg"><path data-name="Path 1" class="arcls-1" d="M6.1 0c.41 0 .83.03 1.24.05.27.01.54.04.79.07l-.02 2.49h-.2c-.27 0-.54-.01-.82-.01-.2 0-.4.01-.61.01A1.041 1.041 0 005.3 3.7c-.02.6-.03 1.9-.03 1.97.03 0 .68.01 1.34.01.32 0 .64 0 .87-.01h.53c-.13.96-.26 1.87-.39 2.8H5.27l-.06 6.97H2.32l.06-6.99H.01l.02-2.77h2.38v-.21c.01-.56 0-1.12.02-1.68a7.581 7.581 0 01.09-1.06A3.145 3.145 0 013.79.65 3.6 3.6 0 015.87.01c.08 0 .15-.01.23-.01z"/></svg><svg viewBox="0 0 5.188 9.531" id="filter-arrow" xmlns="http://www.w3.org/2000/svg"><defs><style>.ascls-1{fill:#243f4d;fill-rule:evenodd}</style></defs><path class="ascls-1" d="M.472 9.538a.463.463 0 00.331-.14l4.221-4.265.013-.013a.522.522 0 00.095-.144.541.541 0 00.045-.217.528.528 0 00-.044-.211.525.525 0 00-.1-.147.043.043 0 00-.011-.012L.801.124a.461.461 0 00-.68.019.539.539 0 00.018.724l3.857 3.9-3.857 3.9a.539.539 0 00-.018.724.467.467 0 00.351.147z"/></svg><svg viewBox="0 0 15 15" id="filter-btn-1" xmlns="http://www.w3.org/2000/svg"><path class="atcls-1" d="M0 3.75h3.75V0H0v3.75zM5.625 15h3.75v-3.75h-3.75V15zM0 15h3.75v-3.75H0V15zm0-5.625h3.75v-3.75H0v3.75zm5.625 0h3.75v-3.75h-3.75v3.75zM11.25 0v3.75H15V0h-3.75zM5.625 3.75h3.75V0h-3.75v3.75zm5.625 5.625H15v-3.75h-3.75v3.75zm0 5.625H15v-3.75h-3.75V15z"/></svg><svg viewBox="0 0 20 15" id="filter-btn-2" xmlns="http://www.w3.org/2000/svg"><path class="aucls-1" d="M.007 0h4.422v4.172H.007V0zm5.828 0h14.159v4.172H5.835V0zM.007 5.413h4.422v4.172H.007V5.413zm5.828 0h14.159v4.172H5.835V5.413zM.007 10.827h4.422V15H.007v-4.171zm5.828 0h14.159V15H5.835v-4.171z"/></svg><svg viewBox="0 0 22 9" id="furniture-arrow" xmlns="http://www.w3.org/2000/svg"><path d="M.3 5.47h16.948l-.1 2.86a.279.279 0 00-.084.2.3.3 0 00.084.21l.172.17a.276.276 0 00.408 0L21.92 4.7a.283.283 0 00.084-.2.307.307 0 00-.084-.21L17.728.08a.3.3 0 00-.408 0l-.172.17a.3.3 0 00-.084.21.3.3 0 00.084.2l.113 2.86H.292a.3.3 0 00-.292.3v1.37a.288.288 0 00.3.28z"/></svg><svg viewBox="0 0 22.66 14.38" id="google" xmlns="http://www.w3.org/2000/svg"><path d="M6.72 14.35A7.121 7.121 0 01.13 8.7a6.6 6.6 0 01-.14-1.93A7.277 7.277 0 015.48.21 5.282 5.282 0 016.66.02c.23-.01.46-.02.69-.02a6.786 6.786 0 013.4.93 9.386 9.386 0 011.27.93c-.72.71-1.41 1.4-2.11 2.09a3.914 3.914 0 00-2.1-1.02 4.259 4.259 0 00-.61-.04 4.307 4.307 0 00-4.14 3.35 3.817 3.817 0 00-.1 1.3 4.3 4.3 0 002.94 3.74 4.35 4.35 0 001.25.19c.1 0 .2-.01.3-.01a4.2 4.2 0 002.09-.67 3.314 3.314 0 001.43-2.17H7.12c0-.09.02-1.89.02-2.76l.01-.12h6.76a7.773 7.773 0 01-1.28 6.05 6.273 6.273 0 01-3.55 2.32 7.539 7.539 0 01-1.94.25c-.14 0-.28 0-.42-.01zm13.33-4.05h-1.89v-.07l.02-2.43h-2.51v-.08l.02-1.82v-.07h2.5l.02-2.43v-.07h1.96v.07l-.02 2.43h2.51v.07l-.01 1.82v.08h-2.51l-.02 2.43v.07h-.07z"/></svg><svg viewBox="0 0 17.19 17.19" id="instagram" xmlns="http://www.w3.org/2000/svg"><path d="M3.59 16.94a4.322 4.322 0 01-3.43-3.75C-.07 11.74-.09 5 .33 3.54A4.387 4.387 0 014.08.19 34.173 34.173 0 018.39 0c1.6 0 3.22.04 4.19.1a4.724 4.724 0 013.14 1.28 4.517 4.517 0 011.38 2.94c.12 1.35.21 7.74-.19 9.24a4.411 4.411 0 01-3.8 3.44 42.333 42.333 0 01-4.74.19 29.143 29.143 0 01-4.78-.25zm.92-15.26a2.958 2.958 0 00-2.75 2.59 57.587 57.587 0 00-.06 8.69 2.8 2.8 0 002.12 2.43 27.569 27.569 0 004.63.25c1.8 0 3.57-.06 4.24-.13a2.941 2.941 0 002.75-2.6 61.315 61.315 0 00.11-8.45 2.9 2.9 0 00-2.58-2.74 40.212 40.212 0 00-4.3-.16c-1.71 0-3.41.04-4.16.12zM4.19 8.6a4.445 4.445 0 014.45-4.41 4.37 4.37 0 014.37 4.41 4.458 4.458 0 01-4.45 4.41A4.37 4.37 0 014.19 8.6zm1.55-.03a2.834 2.834 0 002.81 2.88h.02a2.882 2.882 0 002.88-2.82 2.82 2.82 0 00-2.8-2.88h-.03a2.881 2.881 0 00-2.88 2.82zm6.45-4.55a1.029 1.029 0 011.03-1.03h.01a1.016 1.016 0 011.02 1.04 1.035 1.035 0 01-1.04 1.02 1.014 1.014 0 01-1.02-1.03z"/></svg><svg viewBox="0 0 20.03 20.031" id="menu" xmlns="http://www.w3.org/2000/svg"><path d="M2.15 4.287a2.146 2.146 0 112.14-2.145 2.145 2.145 0 01-2.14 2.145zm0 7.869a2.146 2.146 0 112.14-2.147 2.146 2.146 0 01-2.14 2.147zm0 7.868a2.146 2.146 0 112.14-2.146 2.145 2.145 0 01-2.14 2.146zm7.86-15.737a2.146 2.146 0 112.15-2.145 2.143 2.143 0 01-2.15 2.145zm0 7.869a2.146 2.146 0 112.15-2.147 2.144 2.144 0 01-2.15 2.147zm0 7.868a2.146 2.146 0 112.15-2.146 2.143 2.143 0 01-2.15 2.146zm7.87-15.737a2.146 2.146 0 112.15-2.145 2.143 2.143 0 01-2.15 2.145zm0 7.869a2.146 2.146 0 112.15-2.147 2.144 2.144 0 01-2.15 2.147zm0 7.868a2.146 2.146 0 112.15-2.146 2.143 2.143 0 01-2.15 2.146z"/></svg><svg viewBox="0 0 13.687 13.16" id="name" xmlns="http://www.w3.org/2000/svg"><defs><style>.azcls-1{fill:#436372;fill-rule:evenodd}</style></defs><path class="azcls-1" d="M13.257 13.17H.424a.426.426 0 01-.428-.42 6.85 6.85 0 0113.689 0 .426.426 0 01-.428.42zm-12.39-.83h11.947a6.011 6.011 0 00-11.947 0zM6.841 7a3.5 3.5 0 113.636-3.5A3.574 3.574 0 016.841 7zm0-6.17a2.672 2.672 0 102.78 2.67A2.732 2.732 0 006.841.83z"/></svg><svg viewBox="0 0 37 33.968" id="our-email" xmlns="http://www.w3.org/2000/svg"><path class="bacls-1" d="M.975 33.98a.957.957 0 01-.669-.272.922.922 0 01-.278-.659L0 12.848v-.017a.927.927 0 01.408-.754L5.73 8.461V4.623a.94.94 0 01.948-.932h6.067L17.962.145a.961.961 0 011.079 0l5.185 3.545h6.093a.94.94 0 01.947.932v3.882l5.3 3.621a.933.933 0 01.373.519.528.528 0 01.034.184L37 32.999a.941.941 0 01-.946.933L.977 33.98zm2.773-1.867l29.478-.041-14.712-11.224zm-1.828-.965l11.443-8.73L1.9 14.625zM23.64 22.4l11.461 8.744-.023-16.565zM7.626 16.252l7.308 4.968 3-2.288a.959.959 0 011.148-.008l.013.008 2.977 2.272 7.3-4.993V5.555H7.626v10.7zm-5.013-3.408l3.118 2.121v-4.241zm28.654 2.072l3.028-2.071-3.028-2.07v4.141zM16.079 3.691h4.828L18.5 2.046zm-3.994 12.3a.933.933 0 110-1.865h12.83a.933.933 0 110 1.865h-12.83zm0-4.847a.932.932 0 110-1.864h12.83a.932.932 0 110 1.864h-12.83z"/></svg><svg viewBox="0 0 53.56 52.25" id="pay" xmlns="http://www.w3.org/2000/svg"><path fill="#b8c9d1" d="M46.18 30.91a.83.83 0 00-.84.83v8.27a2.164 2.164 0 01-2.16 2.16H3.84a2.164 2.164 0 01-2.16-2.16V28.09h27.29a.84.84 0 100-1.68H1.68v-5.47h9.87a.828.828 0 00.83-.83.837.837 0 00-.83-.84H1.68v-2.88a2.166 2.166 0 012.16-2.17h25.13a.835.835 0 100-1.67H3.84a3.839 3.839 0 00-3.83 3.84v23.62a3.837 3.837 0 003.83 3.83h39.34a3.837 3.837 0 003.83-3.83v-8.27a.828.828 0 00-.83-.83zM28.97 19.27H14.75a.837.837 0 00-.83.84.828.828 0 00.83.83h14.22a.837.837 0 00.84-.83.845.845 0 00-.84-.84zm-9.24 11.56H5.46a.835.835 0 000 1.67h14.27a.835.835 0 100-1.67zm-6.08 3.99H5.46a.835.835 0 000 1.67h8.19a.835.835 0 000-1.67zm34.63-13.61a.832.832 0 00.84-.84V15.6a3.038 3.038 0 00-2.39-2.97V6.61a6.6 6.6 0 10-13.19 0v6.02a3.053 3.053 0 00-2.4 2.97v10.75a3.045 3.045 0 003.04 3.04h11.9a3.039 3.039 0 003.04-3.04v-3.19a.835.835 0 00-1.67 0v3.19a1.379 1.379 0 01-1.37 1.37h-11.9a1.379 1.379 0 01-1.37-1.37V15.6a1.379 1.379 0 011.37-1.37h11.9a1.379 1.379 0 011.37 1.37v4.77a.83.83 0 00.83.84zm-3.23-8.65h-9.84V6.61a4.92 4.92 0 119.84 0v5.95zm-4.92 4.32a3.092 3.092 0 00-.83 6.07v2.04a.83.83 0 00.83.84.839.839 0 00.84-.84v-2.04a3.094 3.094 0 00-.84-6.07zm0 4.52a1.425 1.425 0 111.42-1.43 1.428 1.428 0 01-1.42 1.43zm3.62 11.25a9.8 9.8 0 11-9.81 9.8 9.805 9.805 0 019.81-9.8z"/></svg><svg viewBox="0 0 37 44" id="phone" xmlns="http://www.w3.org/2000/svg"><path class="bccls-1" d="M13.44 39.016a5.06 5.06 0 115.06 5 5.034 5.034 0 01-5.06-5zm1.97 0a3.085 3.085 0 103.09-3.045 3.074 3.074 0 00-3.09 3.045zM26.88 27.68a5.06 5.06 0 115.06 5 5.033 5.033 0 01-5.06-5zm1.98 0a3.085 3.085 0 103.08-3.046 3.066 3.066 0 00-3.08 3.046zm-15.42 0a5.06 5.06 0 115.06 5 5.033 5.033 0 01-5.06-5zm1.97 0a3.085 3.085 0 103.09-3.046 3.075 3.075 0 00-3.09 3.046zM0 27.68a5.06 5.06 0 115.06 5 5.033 5.033 0 01-5.06-5zm1.97 0a3.085 3.085 0 103.09-3.046 3.075 3.075 0 00-3.09 3.046zm24.91-11.337a5.06 5.06 0 115.06 5 5.034 5.034 0 01-5.06-5zm1.98 0a3.085 3.085 0 103.08-3.045 3.064 3.064 0 00-3.08 3.045zm-15.42 0a5.06 5.06 0 115.06 5 5.034 5.034 0 01-5.06-5zm1.97 0a3.085 3.085 0 103.09-3.045 3.073 3.073 0 00-3.09 3.045zm-15.41 0a5.06 5.06 0 115.06 5 5.034 5.034 0 01-5.06-5zm1.97 0a3.085 3.085 0 103.09-3.045 3.073 3.073 0 00-3.09 3.045zM26.88 5.007a5.06 5.06 0 115.06 5 5.033 5.033 0 01-5.06-5zm1.98 0a3.085 3.085 0 103.08-3.046 3.066 3.066 0 00-3.08 3.046zm-15.42 0a5.06 5.06 0 115.06 5 5.033 5.033 0 01-5.06-5zm1.97 0a3.085 3.085 0 103.09-3.046 3.075 3.075 0 00-3.09 3.046zM0 5.007a5.06 5.06 0 115.06 5 5.033 5.033 0 01-5.06-5zm1.97 0a3.085 3.085 0 103.09-3.046 3.075 3.075 0 00-3.09 3.046z"/></svg><svg viewBox="0 0 22 25" id="play" xmlns="http://www.w3.org/2000/svg"><path fill="#fff" d="M20.684 14.74L4.64 24.54a3.228 3.228 0 01-3.062.14 2.685 2.685 0 01-1.579-2.39V2.7A2.685 2.685 0 011.578.31 3.258 3.258 0 014.64.46l16.044 9.79A2.666 2.666 0 0122 12.5a2.638 2.638 0 01-1.316 2.24z"/></svg><svg viewBox="0 0 64 40" id="products" xmlns="http://www.w3.org/2000/svg"><defs><style>.becls-1{fill:#243f4d;fill-rule:evenodd}</style></defs><path class="becls-1" d="M59.52 16.96l-1.658-6.55a1 1 0 00.793-.97V8.38a4.192 4.192 0 00-4.208-4.16H46.9V2.05A2.063 2.063 0 0044.829 0H6.346a2.063 2.063 0 00-2.071 2.05V20a1 1 0 002 0V2.05a.068.068 0 01.066-.07h38.481a.068.068 0 01.066.07V20a1 1 0 002 0v-1.12h11.826a3.27 3.27 0 013.114 2.24h-3.116a1 1 0 00-1 .99v2.11a3.131 3.131 0 003.14 3.11H62v4.35h-2.621a6.372 6.372 0 00-12 0H46.9v-7.46a1 1 0 00-2 0v7.46H24.1a6.372 6.372 0 00-12 0H6.339a.066.066 0 01-.066-.06v-2.18h4.342a.99.99 0 100-1.98H1a.99.99 0 100 1.98h3.274v2.18a2.061 2.061 0 002.071 2.04h5.413v.07a6.347 6.347 0 0012.693 0v-.07h22.584v.07a6.347 6.347 0 0012.693 0v-.07H63a.994.994 0 001-.99V22.11a5.235 5.235 0 00-4.48-5.15zM46.9 6.2h7.549a2.2 2.2 0 012.2 2.18v.07H46.9V6.2zm0 10.7v-6.47h8.9l1.637 6.47H46.9zM18.1 38.02a4.29 4.29 0 114.343-4.29 4.325 4.325 0 01-4.343 4.29zm35.274 0a4.29 4.29 0 114.342-4.29 4.325 4.325 0 01-4.338 4.29zM62 25.35h-1.14a1.137 1.137 0 01-1.136-1.13V23.1H62v2.25zm-43.892 6.33a2.05 2.05 0 102.071 2.05 2.063 2.063 0 00-2.079-2.05zm35.274 0a2.05 2.05 0 102.071 2.05 2.063 2.063 0 00-2.075-2.05zm-11.758-4.22H26.655a.99.99 0 100 1.98H41.62a.99.99 0 100-1.98zm-25.653-4.23H3.14a.99.99 0 100 1.98h12.827a.99.99 0 100-1.98zM34.85 9.79a1.023 1.023 0 00-1.417 0l-8.911 8.81-4.636-4.58a1 1 0 00-1.417 0 .98.98 0 000 1.4l5.344 5.28a1.01 1.01 0 001.417 0l9.62-9.51a.98.98 0 00-.004-1.4z"/></svg><svg viewBox="0 0 22 20" id="products-cart" xmlns="http://www.w3.org/2000/svg"><path d="M.814 1.63h2.333L6.47 13.67a.812.812 0 00.787.59h10.214a.821.821 0 00.746-.48l3.717-8.56a.836.836 0 00-.068-.78.813.813 0 00-.678-.37H9.9a.82.82 0 000 1.64h10.04l-3.011 6.92H7.867L4.544.6a.808.808 0 00-.787-.6H.814a.815.815 0 000 1.63zM6.484 20a1.85 1.85 0 10-1.845-1.85A1.85 1.85 0 006.484 20zm11.53 0h.135a1.907 1.907 0 10-.135 0z"/></svg><svg viewBox="0 0 22 18" id="products-heart" xmlns="http://www.w3.org/2000/svg"><path d="M21.99 5.82a6.208 6.208 0 00-1.849-4.1A5.871 5.871 0 0016 0c-2.311 0-3.948 1.78-4.827 2.74a2.156 2.156 0 01-.156.17l-.083-.09C10.134 1.9 8.458 0 5.996 0a5.873 5.873 0 00-4.139 1.72 6.208 6.208 0 00-1.849 4.1 6.845 6.845 0 001.271 4.34 29.307 29.307 0 004.763 4.75C7.747 16.32 9.992 18 11.007 18c1.032 0 3.269-1.68 4.965-3.09a29.234 29.234 0 004.746-4.75 6.935 6.935 0 001.272-4.34zm-2.376 3.61a27 27 0 01-4.431 4.42c-2.406 2-3.831 2.79-4.172 2.82-.342-.03-1.77-.83-4.188-2.84a26.78 26.78 0 01-4.437-4.4 5.6 5.6 0 01-1.054-3.54 4.807 4.807 0 014.666-4.57c1.863 0 3.216 1.54 3.943 2.37A1.52 1.52 0 0011 4.45a1.731 1.731 0 001.151-.81c.794-.87 2.122-2.32 3.851-2.32a4.807 4.807 0 014.666 4.57 5.528 5.528 0 01-1.054 3.54z"/></svg><svg viewBox="0 0 20 20" id="products-search" xmlns="http://www.w3.org/2000/svg"><path d="M19.45 16.8l-4.588-4.59a8.827 8.827 0 01-2.651 2.65l4.588 4.59a1.874 1.874 0 002.651-2.65zM15 7.5A7.5 7.5 0 107.5 15 7.5 7.5 0 0015 7.5zm-7.5 5.62a5.625 5.625 0 115.625-5.62A5.628 5.628 0 017.5 13.12zM3.125 7.5h1.25A3.135 3.135 0 017.5 4.37V3.12A4.386 4.386 0 003.125 7.5z"/></svg><svg viewBox="0 0 36.41 37.719" id="projects" xmlns="http://www.w3.org/2000/svg"><defs><style>.bicls-1{fill:#a3bbc8;fill-rule:evenodd}</style></defs><path class="bicls-1" d="M1.975 37.71A1.984 1.984 0 010 35.719V8.441a.915.915 0 01.264-.643L7.74.256a.9.9 0 01.638-.267h19.09a1.98 1.98 0 011.97 1.991v2.87a.9.9 0 11-1.8 0V1.98a.172.172 0 00-.17-.17H9.278v5.552a1.98 1.98 0 01-1.97 1.99h-5.5v26.367a.17.17 0 00.168.17h25.5a.173.173 0 00.17-.17v-13.9a.9.9 0 111.8 0v13.9a1.98 1.98 0 01-1.97 1.991h-25.5zM3.083 7.532H7.31a.17.17 0 00.168-.17V3.097zM7.059 31.24a.91.91 0 010-1.82H11l1.39-5.066a.9.9 0 01.23-.4l.02-.015H7.059a.91.91 0 010-1.82h7.381l5.43-5.48H7.059a.911.911 0 010-1.821H21.68l8.43-8.5a3.038 3.038 0 014.32 0l1.06 1.071a3.1 3.1 0 010 4.356L18 29.382a.889.889 0 01-.39.234l-5.7 1.6c-.03.007-.23.029-.23.029H7.059zm5.921-2.218l2.65-.744-1.91-1.933zm1.56-4.424l2.83 2.853L31.8 12.889l-2.83-2.852zm16.84-17L30.25 8.75l2.83 2.853 1.13-1.147a1.264 1.264 0 000-1.782l-1.06-1.071a1.225 1.225 0 00-.88-.369 1.265 1.265 0 00-.89.368z"/></svg><svg viewBox="0 0 512 512" id="recent-time" xmlns="http://www.w3.org/2000/svg"><path d="M452 40h-24V0h-40v40H124V0H84v40H60C26.916 40 0 66.916 0 100v352c0 33.084 26.916 60 60 60h392c33.084 0 60-26.916 60-60V100c0-33.084-26.916-60-60-60zm20 412c0 11.028-8.972 20-20 20H60c-11.028 0-20-8.972-20-20V188h432v264zm0-304H40v-48c0-11.028 8.972-20 20-20h24v40h40V80h264v40h40V80h24c11.028 0 20 8.972 20 20v48z" fill="#9a9a9a"/><path fill="#9a9a9a" d="M76 230h40v40H76zM156 230h40v40h-40zM236 230h40v40h-40zM316 230h40v40h-40zM396 230h40v40h-40zM76 310h40v40H76zM156 310h40v40h-40zM236 310h40v40h-40zM316 310h40v40h-40zM76 390h40v40H76zM156 390h40v40h-40zM236 390h40v40h-40zM316 390h40v40h-40zM396 310h40v40h-40z"/></svg><svg viewBox="0 0 43.12 39.094" id="revenue" xmlns="http://www.w3.org/2000/svg"><defs><style>.bkcls-1{fill:#a3bbc8;fill-rule:evenodd}</style></defs><path class="bkcls-1" d="M37.87 9.304V2.178A2.174 2.174 0 0036.82.291 2.076 2.076 0 0034.69.27a48.669 48.669 0 01-20.7 6.383l-6.68.034a3.286 3.286 0 00-3.23 2.949H2.72A2.749 2.749 0 00.01 12.41v6.1a2.748 2.748 0 002.71 2.774h1.36a3.32 3.32 0 001.91 2.664l4.85 13.723a2.118 2.118 0 001.98 1.428h4.86a2.1 2.1 0 001.73-.925 2.221 2.221 0 00.25-1.986l-4.15-11.785a48.668 48.668 0 0119.18 6.244 2.08 2.08 0 002.13-.021 2.174 2.174 0 001.05-1.887v-7.126a6.228 6.228 0 000-12.309zM4.05 19.14H2.72a.622.622 0 01-.62-.634v-6.1a.623.623 0 01.62-.634h1.33v7.364zm2.78 2.844a1.2 1.2 0 01-.69-1.1V10.03a1.185 1.185 0 011.17-1.2h5.67v13.262H7.23a1.027 1.027 0 01-.4-.108zm10.88 14.93a.037.037 0 01-.01.028c-.01.013-.01.013-.02.013h-4.86a.049.049 0 01-.03-.018L8.31 24.229h4.92zm18.08-8.179a.037.037 0 01-.03.041.04.04 0 01-.05 0 50.66 50.66 0 00-20.65-6.57v-13.5a50.692 50.692 0 0020.65-6.571.04.04 0 01.05 0 .037.037 0 01.03.041v26.557zm2.08-9.292v-7.974a4.089 4.089 0 010 7.974z"/></svg><svg viewBox="0 0 64 57" id="satisfied" xmlns="http://www.w3.org/2000/svg"><defs><style>.blcls-1{fill:#243f4d;fill-rule:evenodd}</style></defs><path class="blcls-1" d="M60.635 0H3.365A3.368 3.368 0 000 3.36V44.5a3.368 3.368 0 003.365 3.36h21.691l-.877 7h-3.633a1.07 1.07 0 100 2.14h22.908a1.07 1.07 0 100-2.14H39.82l-.877-7h21.692A3.368 3.368 0 0064 44.5V3.36A3.368 3.368 0 0060.635 0zM26.344 54.86l.877-7h9.558l.877 7H26.344zM61.852 44.5a1.213 1.213 0 01-1.217 1.21H3.365a1.212 1.212 0 01-1.217-1.21V3.36a1.221 1.221 0 011.217-1.22h57.27a1.222 1.222 0 011.217 1.22V44.5zM50.327 4.57H5.655a1.072 1.072 0 00-1.073 1.07v35.43a1.072 1.072 0 001.073 1.07h3.437a1.07 1.07 0 100-2.14H6.729V6.71h43.6a1.07 1.07 0 10-.002-2.14zm8.017 0h-3.436a1.07 1.07 0 100 2.14h2.363V40h-43.6a1.07 1.07 0 100 2.14h44.671a1.073 1.073 0 001.074-1.07V5.64a1.073 1.073 0 00-1.072-1.07zm-6.872 5.72a3.352 3.352 0 00-2.97 4.93l-8.6 9.09a3.322 3.322 0 00-1.408-.31 3.361 3.361 0 00-2.314.92l-7.348-3.88a3.364 3.364 0 10-6.684-.54 3.352 3.352 0 00.328 1.45l-8.406 8.14a3.331 3.331 0 00-1.539-.38 3.36 3.36 0 103.036 1.91l8.406-8.14a3.328 3.328 0 003.852-.55l7.348 3.88a3.54 3.54 0 00-.044.55 3.365 3.365 0 106.334-1.58l8.6-9.09a3.316 3.316 0 001.408.31 3.355 3.355 0 10.001-6.71zm-38.944 24a1.215 1.215 0 111.217-1.22 1.222 1.222 0 01-1.217 1.22zm12.981-12.58a1.21 1.21 0 111.217-1.21 1.213 1.213 0 01-1.217 1.21zm12.982 6.86a1.215 1.215 0 111.217-1.21 1.212 1.212 0 01-1.217 1.21zm12.981-13.71a1.215 1.215 0 111.217-1.22 1.222 1.222 0 01-1.217 1.22zm0 4.57a1.073 1.073 0 00-1.074 1.07v16a1.074 1.074 0 002.148 0v-16a1.073 1.073 0 00-1.074-1.07zm-25.963 6.86a1.066 1.066 0 00-1.074 1.07v9.14a1.074 1.074 0 002.148 0v-9.14a1.066 1.066 0 00-1.074-1.07zm12.982 6.85a1.073 1.073 0 00-1.074 1.07v2.29a1.074 1.074 0 002.147 0v-2.29a1.072 1.072 0 00-1.073-1.07z"/></svg><svg viewBox="0 0 15.28 15.281" id="search" xmlns="http://www.w3.org/2000/svg"><path d="M2.98 6.076a.617.617 0 01.75.485 2.583 2.583 0 00.78 1.489A3.036 3.036 0 006 8.827a.636.636 0 01.49.743.649.649 0 01-.72.515 4.21 4.21 0 01-2.14-1.13A4.164 4.164 0 012.5 6.819a.6.6 0 01.48-.743zM6.26 0a6.267 6.267 0 016.28 6.257 6.136 6.136 0 01-.57 2.6l2.34 2.036c1.7 1.746.74 3.266.29 3.717-.42.454-1.99 1.414-3.73-.292l-2.06-2.35A6.261 6.261 0 116.26 0zm5.55 13.517a1.352 1.352 0 001.88.226 1.313 1.313 0 00-.23-1.874l-2.16-1.88a6.236 6.236 0 01-1.37 1.34zm-5.55-2.312a4.948 4.948 0 10-4.97-4.948A4.963 4.963 0 006.26 11.2z"/></svg><svg viewBox="0 0 22 9" id="slider-arrow-left" xmlns="http://www.w3.org/2000/svg"><defs><style>.bncls-1{fill:#a3bbc8;fill-rule:evenodd}</style></defs><path class="bncls-1" d="M21.7 3.53H4.76l.1-2.86a.3.3 0 00.08-.2.323.323 0 00-.08-.21L4.68.09a.267.267 0 00-.4 0L.08 4.3a.3.3 0 00-.08.2.323.323 0 00.08.21l4.2 4.21a.29.29 0 00.4 0l.18-.17a.323.323 0 00.08-.21.3.3 0 00-.08-.2l-.12-2.86h16.97a.3.3 0 00.29-.3V3.81a.291.291 0 00-.3-.28z"/></svg><svg viewBox="0 0 22 9" id="slider-arrow-right" xmlns="http://www.w3.org/2000/svg"><defs><style>.bocls-1{fill:#a3bbc8;fill-rule:evenodd}</style></defs><path class="bocls-1" d="M.3 5.47h16.94l-.1 2.86a.3.3 0 00-.08.2.323.323 0 00.08.21l.18.17a.267.267 0 00.4 0l4.2-4.21a.3.3 0 00.08-.2.323.323 0 00-.08-.21L17.72.08a.29.29 0 00-.4 0l-.18.17a.323.323 0 00-.08.21.318.318 0 00.08.2l.12 2.86H.29a.3.3 0 00-.29.3v1.37a.291.291 0 00.3.28z"/></svg><svg aria-hidden="true" data-prefix="fas" data-icon="star" class="bpsvg-inline--fa bpfa-star bpfa-w-18" viewBox="0 0 576 512" id="star" xmlns="http://www.w3.org/2000/svg"><path fill="currentColor" d="M259.3 17.8L194 150.2 47.9 171.5c-26.2 3.8-36.7 36.1-17.7 54.6l105.7 103-25 145.5c-4.5 26.3 23.2 46 46.4 33.7L288 439.6l130.7 68.7c23.2 12.2 50.9-7.4 46.4-33.7l-25-145.5 105.7-103c19-18.5 8.5-50.8-17.7-54.6L382 150.2 316.7 17.8c-11.7-23.6-45.6-23.9-57.4 0z"/></svg><svg viewBox="0 0 1 32" id="stick" xmlns="http://www.w3.org/2000/svg"><path fill="#fde7d3" class="bqcls-1" d="M0 0h1v32H0z"/></svg><svg viewBox="0 0 50.875 53.13" id="support" xmlns="http://www.w3.org/2000/svg"><path fill="#b8c9d1" d="M41.078 33.5a9.815 9.815 0 11-9.8 9.82 9.811 9.811 0 019.8-9.82zm4.328-21.92a.937.937 0 00-1.592.99 22.684 22.684 0 01-32.86 30.14.938.938 0 00-1.125 1.5 24.559 24.559 0 0035.577-32.63zm-23.03 21.94h-7.55l4.743-4.75a12.68 12.68 0 003.744-9.03 5.844 5.844 0 10-11.688 0 .938.938 0 001.875 0 3.969 3.969 0 117.938 0 10.836 10.836 0 01-3.195 7.71l-6.344 6.34a.949.949 0 00-.2 1.03.93.93 0 00.866.57h9.813a.935.935 0 10-.002-1.87zm15.039-6.44h-2.6v-1.52a.938.938 0 00-1.875 0v1.52h-5.286l5.286-8.85v4.21a.938.938 0 101.875 0v-7.62a.957.957 0 00-.456-.8.94.94 0 00-1.286.33l-7.875 13.19a.933.933 0 00-.011.94.951.951 0 00.816.48h6.938v5.5a.938.938 0 001.875 0v-5.5h2.6a.94.94 0 00-.001-1.88zm5.33-22.63a.938.938 0 10-1.875.04l.042 1.75A24.556 24.556 0 007.363 42.09a.93.93 0 00.656.27.92.92 0 00.669-.28.942.942 0 00-.013-1.33A22.679 22.679 0 0124.557 1.88a22.745 22.745 0 0115.107 5.77l-1.843.04a.935.935 0 00.022 1.87h.023l4.06-.09a.934.934 0 00.915-.96z"/></svg><svg viewBox="0 0 15 11" id="team-btn-arrow" xmlns="http://www.w3.org/2000/svg"><defs><style>.bscls-1{fill:#fff;fill-rule:evenodd}</style></defs><path class="bscls-1" d="M8.931 11.01a.673.673 0 00.425-.16l5.434-4.92c.007 0 .013-.01.019-.01l.031-.03v-.01a.567.567 0 00.138-.47.6.6 0 00-.155-.31l-.033-.03L9.355.16a.65.65 0 00-.874.02.578.578 0 00.024.84l4.311 3.89H.631a.608.608 0 00-.617.59.6.6 0 00.617.59h12.186l-4.311 3.9a.566.566 0 00-.024.83.608.608 0 00.449.19z"/></svg><svg viewBox="0 0 512 512" id="time" xmlns="http://www.w3.org/2000/svg"><path d="M452 40h-24V0h-40v40H124V0H84v40H60C26.916 40 0 66.916 0 100v352c0 33.084 26.916 60 60 60h392c33.084 0 60-26.916 60-60V100c0-33.084-26.916-60-60-60zm20 412c0 11.028-8.972 20-20 20H60c-11.028 0-20-8.972-20-20V188h432v264zm0-304H40v-48c0-11.028 8.972-20 20-20h24v40h40V80h264v40h40V80h24c11.028 0 20 8.972 20 20v48z" fill="#fff"/><path fill="#fff" d="M76 230h40v40H76zM156 230h40v40h-40zM236 230h40v40h-40zM316 230h40v40h-40zM396 230h40v40h-40zM76 310h40v40H76zM156 310h40v40h-40zM236 310h40v40h-40zM316 310h40v40h-40zM76 390h40v40H76zM156 390h40v40h-40zM236 390h40v40h-40zM316 390h40v40h-40zM396 310h40v40h-40z"/></svg><svg viewBox="0 0 512 512" id="time-black" xmlns="http://www.w3.org/2000/svg"><path d="M452 40h-24V0h-40v40H124V0H84v40H60C26.916 40 0 66.916 0 100v352c0 33.084 26.916 60 60 60h392c33.084 0 60-26.916 60-60V100c0-33.084-26.916-60-60-60zm20 412c0 11.028-8.972 20-20 20H60c-11.028 0-20-8.972-20-20V188h432v264zm0-304H40v-48c0-11.028 8.972-20 20-20h24v40h40V80h264v40h40V80h24c11.028 0 20 8.972 20 20v48z" fill="#222933"/><path fill="#222933" d="M76 230h40v40H76zM156 230h40v40h-40zM236 230h40v40h-40zM316 230h40v40h-40zM396 230h40v40h-40zM76 310h40v40H76zM156 310h40v40h-40zM236 310h40v40h-40zM316 310h40v40h-40zM76 390h40v40H76zM156 390h40v40h-40zM236 390h40v40h-40zM316 390h40v40h-40zM396 310h40v40h-40z"/></svg><svg viewBox="0 0 14.31 11.62" id="twitter" xmlns="http://www.w3.org/2000/svg"><path data-name="Path 2" class="bvcls-1" d="M14.31 1.4c-.11.16-.21.3-.33.45a5.7 5.7 0 01-1.07 1.01l-.05.09a8.22 8.22 0 01-.07 1.31 8.818 8.818 0 01-.77 2.61 8.712 8.712 0 01-1.6 2.3 7.864 7.864 0 01-4.05 2.25 8.967 8.967 0 01-1.64.2h-.26a8.172 8.172 0 01-4.42-1.27l-.07-.04a5.322 5.322 0 00.69.04 6.049 6.049 0 002.25-.44 5.834 5.834 0 001.4-.82 2.9 2.9 0 01-2.71-2.03 3.287 3.287 0 00.54.05 2.82 2.82 0 00.71-.09L2.91 7A2.9 2.9 0 01.59 4.1a2.914 2.914 0 001.31.35A2.914 2.914 0 01.7 2.67 2.877 2.877 0 011.04.55a8.311 8.311 0 006.02 3.07c-.02-.12-.03-.22-.05-.33a2.8 2.8 0 01.45-1.91A2.853 2.853 0 019.45.05a3.439 3.439 0 01.54-.04 2.833 2.833 0 012.03.86.139.139 0 00.1.05.09.09 0 00.05-.01 5.547 5.547 0 001.71-.65l.04-.02a2.919 2.919 0 01-1.25 1.6 5.859 5.859 0 001.64-.44z"/></svg></svg>